<svg width="512" height="512" xmlns="http://www.w3.org/2000/svg">

 <g>
  <title>background</title>
  <rect fill="none" id="canvas_background" height="402" width="582" y="-1" x="-1"/>
 </g>
 <g>
  <title>Layer 1</title>
  <g stroke="null" id="svg_1">
   <g stroke="null" id="svg_2">
    <path fill="#BBBBBB" stroke="null" id="svg_3" d="m359.619221,322.556293l-79.720472,-87.301392l79.720472,-87.291757c2.50449,-2.749084 3.781566,-6.412059 3.513995,-10.126176c-0.266829,-3.717823 -2.041986,-7.164369 -4.922261,-9.528033l-96.910957,-79.701201c-4.061736,-3.342038 -9.677754,-4.043948 -14.432506,-1.792945c-4.754752,2.241367 -7.784748,7.023543 -7.784748,12.281564l0,131.467588l-55.633189,-60.926788c-5.054194,-5.538192 -13.653512,-5.92806 -19.191705,-0.869419c-5.538192,5.058641 -5.92806,13.649065 -0.869419,19.191705l75.694313,82.895001l0,8.803147l-75.693572,82.898707c-5.063088,5.533745 -4.673221,14.129358 0.869419,19.191705c5.54264,5.063088 14.133805,4.673221 19.191705,-0.873866l55.628742,-60.917894l0,131.458694c0,5.252833 3.034443,10.039456 7.784748,12.286012c1.847794,0.869419 3.831226,1.300052 5.801316,1.300052c3.092997,0 6.154124,-1.051011 8.635637,-3.08855l96.910216,-79.702684c2.880275,-2.368111 4.655432,-5.814657 4.922261,-9.528033c0.266829,-3.713376 -1.00061,-7.377092 -3.513995,-10.125435zm-93.36509,-234.695731l63.648448,52.340811l-63.648448,69.703252l0,-122.044063zm0,294.789418l0,-122.039616l63.648448,69.698805l-63.648448,52.340811z"/>
   </g>
  </g>
  <g id="svg_4"/>
  <g id="svg_5"/>
  <g id="svg_6"/>
  <g id="svg_7"/>
  <g id="svg_8"/>
  <g id="svg_9"/>
  <g id="svg_10"/>
  <g id="svg_11"/>
  <g id="svg_12"/>
  <g id="svg_13"/>
  <g id="svg_14"/>
  <g id="svg_15"/>
  <g id="svg_16"/>
  <g id="svg_17"/>
  <g id="svg_18"/>
 </g>
</svg>