<svg width="516.375" height="516.375" xmlns="http://www.w3.org/2000/svg">
 <g>
  <title>background</title>
  <rect x="-1" y="-1" width="518.375" height="518.375" id="canvas_background" fill="none"/>
 </g>

 <g>
  <title>Layer 1</title>
  <g id="svg_1" stroke="null">
   <g id="svg_2" stroke="null">
    <path d="m436.0627,424.58928c-10.70833,0 -19.12182,8.41349 -19.12182,19.12182c0,6.11905 3.05952,11.47342 7.64881,15.29762l0,15.29762c0,6.11905 5.35436,11.47342 11.47341,11.47342s11.47342,-5.35437 11.47342,-11.47342l0,-15.29762c4.58928,-3.8242 7.64881,-9.17857 7.64881,-15.29762c-0.0008,-10.70833 -8.4143,-19.12182 -19.12263,-19.12182zm3.82421,29.83056l0,19.8869c0,2.29445 -1.52977,3.82421 -3.82421,3.82421s-3.8242,-1.52976 -3.8242,-3.82421l0,-19.8869c-4.58929,-1.52976 -7.64882,-6.11945 -7.64882,-10.70834c0,-6.11904 5.35437,-11.47341 11.47342,-11.47341s11.47341,5.35437 11.47341,11.47341c-0.0008,5.35397 -3.06032,9.17858 -7.64961,10.70834l0.00001,0z" id="svg_3" fill="#B8D078" stroke="null"/>
    <path d="m493.42858,393.99404l0,-26.77104c0,-31.35992 -26.00596,-57.36587 -57.36588,-57.36587c-31.36032,0 -57.36628,26.00595 -57.36628,57.36627l0,26.77104c-13.00317,0 -22.94643,9.94325 -22.94643,22.94643l0,76.4877c0,13.00318 9.94326,22.94643 22.94643,22.94643l114.73216,0c13.00317,0 22.94643,-9.94325 22.94643,-22.94643l0,-76.4881c0,-12.2381 -9.94326,-22.94643 -22.94643,-22.94643zm-107.08335,-26.77064c0,-27.53572 22.18135,-49.71706 49.71707,-49.71706c27.53572,0 49.71707,22.18134 49.71707,49.71706l0,26.77104l-7.64881,0l0,-26.77104c0,-22.94643 -19.12183,-42.06865 -42.06866,-42.06865s-42.06786,19.12182 -42.06786,42.06865l0,26.77104l-7.64881,0l0,-26.77104zm84.13692,0l0,26.77104l-68.8393,0l0,-26.77104c0,-19.12182 15.29762,-34.41944 34.41945,-34.41944s34.41985,15.29722 34.41985,34.41944zm38.24405,126.20517c0,8.41349 -6.88413,15.29762 -15.29762,15.29762l-114.73215,0c-8.4139,0 -15.29762,-6.88413 -15.29762,-15.29762l0,-76.4881c0,-8.41389 6.88372,-15.29762 15.29762,-15.29762l114.73215,0c8.41349,0 15.29762,6.88373 15.29762,15.29762l0,76.4881z" id="svg_4" fill="#B8D078" stroke="null"/>
   </g>
  </g>
  <g id="svg_5"/>
  <g id="svg_6"/>
  <g id="svg_7"/>
  <g id="svg_8"/>
  <g id="svg_9"/>
  <g id="svg_10"/>
  <g id="svg_11"/>
  <g id="svg_12"/>
  <g id="svg_13"/>
  <g id="svg_14"/>
  <g id="svg_15"/>
  <g id="svg_16"/>
  <g id="svg_17"/>
  <g id="svg_18"/>
  <g id="svg_19"/>
 </g>
</svg>