<svg width="511.991" height="511.991" xmlns="http://www.w3.org/2000/svg">
 <g>
  <title>background</title>
  <rect x="-1" y="-1" width="513.991" height="513.991" id="canvas_background" fill="none"/>
 </g>

 <g>
  <title>Layer 1</title>
  <g stroke="null" id="svg_1">
   <path stroke="null" d="m387.363038,140.993995l-49.628742,0c-6.42382,0 -11.631736,5.207916 -11.631736,11.631736l0,49.628742c0,6.42382 5.207916,11.631736 11.631736,11.631736l13.182635,0l0,37.398359l-75.994012,42.746631l0,-166.995289l25.58982,0c8.999087,0 14.597054,-9.81641 10.006395,-17.561596l-37.221557,-62.811377c-4.497605,-7.58932 -15.512084,-7.596299 -20.013566,0l-37.221557,62.811377c-4.588332,7.741308 1.003431,17.561596 10.006395,17.561596l25.58982,0l0,170.377798l-63.586826,-22.709802l0,-37.91791c14.407844,-4.866719 24.814371,-18.502215 24.814371,-34.531524c0,-20.096539 -16.349569,-36.446108 -36.446108,-36.446108s-36.446108,16.349569 -36.446108,36.446108c0,16.029308 10.406527,29.664805 24.814371,34.531524l0,46.115182c0,4.915572 3.090165,9.300736 7.719596,10.953994l79.130703,28.261242l0,18.80309c-21.338808,5.233506 -37.221557,24.513497 -37.221557,47.442751c0,27.035257 21.870766,49.628742 48.853293,49.628742c26.920491,0 48.853293,-22.537653 48.853293,-49.628742c0,-22.929254 -15.882748,-42.210021 -37.221557,-47.442751l0,-20.197347l93.328401,-52.497128c3.663222,-2.060368 5.929084,-5.936063 5.929084,-10.138221l0,-44.200599l13.182635,0c6.42382,0 11.631736,-5.207916 11.631736,-11.631736l0,-49.628742c0.000775,-6.424596 -5.207141,-11.631736 -11.630961,-11.631736z" id="svg_2" fill="#BBBBBB"/>
  </g>
 </g>
</svg>